<svg width="24" xmlns="http://www.w3.org/2000/svg" height="24" id="screenshot-11e4fe61-496a-8039-8008-2fba32e0fecb" viewBox="0 0 24 24" xmlns:xlink="http://www.w3.org/1999/xlink" fill="none" version="1.1"><g id="shape-11e4fe61-496a-8039-8008-2fba32e0fecb"><g class="frame-container-wrapper"><g class="frame-container-blur"><g class="frame-container-shadows"><g fill="none"><g class="fills" id="fills-11e4fe61-496a-8039-8008-2fba32e0fecb"><rect rx="0" ry="0" x="0" y="0" width="24" height="24" transform="matrix(1.000000, 0.000000, 0.000000, 1.000000, 0.000000, 0.000000)" class="frame-background"/></g><g class="frame-children"><g id="shape-11e4fe61-496a-8039-8008-2fba32e0fecc" style="display: none;"><g class="fills" id="fills-11e4fe61-496a-8039-8008-2fba32e0fecc"><rect width="24" height="24" x="0" stroke-linejoin="round" transform="matrix(1.000000, 0.000000, 0.000000, 1.000000, 0.000000, 0.000000)" style="fill: none;" ry="0" fill="none" stroke-linecap="round" rx="0" y="0"/></g><g fill="none" stroke-linejoin="round" stroke-linecap="round" id="strokes-8768bf4b-c702-8022-8008-378bc51cf0e0-11e4fe61-496a-8039-8008-2fba32e0fecc" class="strokes"><g class="inner-stroke-shape" transform="matrix(1.000000, 0.000000, 0.000000, 1.000000, 0.000000, 0.000000)"><defs><clipPath id="inner-stroke-render-2-11e4fe61-496a-8039-8008-2fba32e0fecc-0"><use href="#stroke-shape-render-2-11e4fe61-496a-8039-8008-2fba32e0fecc-0"/></clipPath><rect rx="0" ry="0" x="0" y="0" width="24" height="24" id="stroke-shape-render-2-11e4fe61-496a-8039-8008-2fba32e0fecc-0" style="fill: none; stroke-width: 4; stroke: rgb(26, 26, 26); stroke-opacity: 1;"/></defs><use href="#stroke-shape-render-2-11e4fe61-496a-8039-8008-2fba32e0fecc-0" clip-path="url('#inner-stroke-render-2-11e4fe61-496a-8039-8008-2fba32e0fecc-0')"/></g></g></g><g id="shape-11e4fe61-496a-8039-8008-2fba32e0fecd"><g class="fills" id="fills-11e4fe61-496a-8039-8008-2fba32e0fecd"><path d="M15,22L15,18C15.13909912109375,16.747314453125,14.7799072265625,15.4901123046875,14,14.5C17,14.5,20,12.5,20,9C20.08001708984375,7.75,19.72998046875,6.52001953125,19,5.5C19.280029296875,4.3499755859375,19.280029296875,3.1500244140625,19,2C19,2,18,2,16,3.5C13.3599853515625,3,10.6400146484375,3,8,3.5C6,2,5,2,5,2C4.70001220703125,3.1500244140625,4.70001220703125,4.3499755859375,5,5.5C4.2718505859375,6.515869140625,3.91845703125,7.7528076171875,4,9C4,12.5,7,14.5,10,14.5C9.6099853515625,14.989990234375,9.32000732421875,15.550048828125,9.1500244140625,16.1500244140625C8.97998046875,16.75,8.92999267578125,17.3800048828125,9,18L9,22" fill="none" stroke-linecap="round" stroke-linejoin="round" style="fill: none;"/></g><g fill="none" stroke-linecap="round" stroke-linejoin="round" id="strokes-8768bf4b-c702-8022-8008-378bc51e100d-11e4fe61-496a-8039-8008-2fba32e0fecd" class="strokes"><g class="stroke-shape"><path d="M15,22L15,18C15.13909912109375,16.747314453125,14.7799072265625,15.4901123046875,14,14.5C17,14.5,20,12.5,20,9C20.08001708984375,7.75,19.72998046875,6.52001953125,19,5.5C19.280029296875,4.3499755859375,19.280029296875,3.1500244140625,19,2C19,2,18,2,16,3.5C13.3599853515625,3,10.6400146484375,3,8,3.5C6,2,5,2,5,2C4.70001220703125,3.1500244140625,4.70001220703125,4.3499755859375,5,5.5C4.2718505859375,6.515869140625,3.91845703125,7.7528076171875,4,9C4,12.5,7,14.5,10,14.5C9.6099853515625,14.989990234375,9.32000732421875,15.550048828125,9.1500244140625,16.1500244140625C8.97998046875,16.75,8.92999267578125,17.3800048828125,9,18L9,22" style="fill: none; stroke-width: 2; stroke: rgb(26, 26, 26); stroke-opacity: 1;"/></g></g></g><g id="shape-11e4fe61-496a-8039-8008-2fba32e0fece"><g class="fills" id="fills-11e4fe61-496a-8039-8008-2fba32e0fece"><path d="M9,18C4.489990234375,20,4,16,2,16" fill="none" stroke-linecap="round" stroke-linejoin="round" style="fill: none;"/></g><g fill="none" stroke-linecap="round" stroke-linejoin="round" id="strokes-8768bf4b-c702-8022-8008-378bc51eb2ac-11e4fe61-496a-8039-8008-2fba32e0fece" class="strokes"><g class="stroke-shape"><path d="M9,18C4.489990234375,20,4,16,2,16" style="fill: none; stroke-width: 2; stroke: rgb(26, 26, 26); stroke-opacity: 1;"/></g></g></g></g></g></g></g></g></g></svg>