<?xml version="1.0" encoding="UTF-8" standalone="no"?>
<svg
   width="24"
   height="24"
   viewBox="0 0 24 24"
   fill="none"
   version="1.1"
   id="svg11"
   xmlns="http://www.w3.org/2000/svg"
   xmlns:svg="http://www.w3.org/2000/svg">
  <defs
     id="defs11" />
  <g
     fill="none"
     stroke-linecap="round"
     stroke-linejoin="round"
     class="strokes">
    <path
       d="M 9,18 C 4.4899902,20 4,16 2,16"
       style="stroke-width:2"
       id="path6" />
  </g>
  <g
     fill="none"
     stroke-linecap="round"
     stroke-linejoin="round"
     class="strokes"
     style="display:inline">
    <path
       d="m 15,22 v -4 c 0.139099,-1.252686 -0.220093,-2.509888 -1,-3.5 3,0 6,-2 6,-5.5 C 20.080017,7.75 19.72998,6.5200195 19,5.5 19.280029,4.3499756 19.280029,3.1500244 19,2 19,2 18,2 16,3.5 13.359985,3 10.640015,3 8,3.5 6,2 5,2 5,2 4.7000122,3.1500244 4.7000122,4.3499756 5,5.5 4.2718506,6.5158691 3.918457,7.7528076 4,9 4,12.5 7,14.5 10,14.5 9.6099854,14.98999 9.3200073,15.550049 9.1500244,16.150024 8.9799805,16.75 8.9299927,17.380005 9,18 v 4"
       style="stroke-width:2"
       id="path4" />
  </g>
</svg>
